<?xml version="1.0" encoding="utf-8"?>
<!-- Generator: Adobe Illustrator 15.0.0, SVG Export Plug-In . SVG Version: 6.00 Build 0)  -->
<!DOCTYPE svg PUBLIC "-//W3C//DTD SVG 1.1//EN" "http://www.w3.org/Graphics/SVG/1.1/DTD/svg11.dtd">
<svg version="1.1" id="Layer_1" xmlns="http://www.w3.org/2000/svg" xmlns:xlink="http://www.w3.org/1999/xlink" x="0px" y="0px"
	 width="800px" height="800px" viewBox="0 0 800 800" enable-background="new 0 0 800 800" xml:space="preserve">
<g>
	<g>
		<linearGradient id="SVGID_1_" gradientUnits="userSpaceOnUse" x1="296.7905" y1="183.9194" x2="520.1163" y2="407.1798">
			<stop  offset="0" style="stop-color:#F7AB33"/>
			<stop  offset="0.0139" style="stop-color:#F6A732"/>
			<stop  offset="0.1522" style="stop-color:#F1822D"/>
			<stop  offset="0.2969" style="stop-color:#EC6328"/>
			<stop  offset="0.4479" style="stop-color:#E94B25"/>
			<stop  offset="0.6078" style="stop-color:#E63A22"/>
			<stop  offset="0.7825" style="stop-color:#E43020"/>
			<stop  offset="1" style="stop-color:#E42D20"/>
		</linearGradient>
		<path fill="url(#SVGID_1_)" d="M465.54,431.309c2.693,0.538,5.537,0.063,7.919-1.591c2.379-1.638,3.812-4.11,4.228-6.819
			c0.416-2.699-0.205-5.59-1.939-8.063c-1.751-2.474-4.271-4.039-6.966-4.565c-2.684-0.541-5.518-0.058-7.89,1.587
			c-2.366,1.639-3.806,4.107-4.224,6.799c-0.419,2.691,0.189,5.578,1.914,8.044C460.323,429.188,462.846,430.746,465.54,431.309z
			 M312.989,218.537c0,0-8.798-9.001-24.734-4.148l-18.087,51.815l7.359,24.112l-16.836,20.171l0.94,11.708l3.848-8.304
			l21.148-7.623l17.938-6.463l7.188-15.58c-1.286-1.17-2.285-2.601-2.855-4.196c-0.917-2.537-0.863-5.426,0.339-8.052
			c1.207-2.613,3.373-4.491,5.865-5.397c2.497-0.905,5.368-0.853,7.967,0.384c2.612,1.248,4.494,3.447,5.419,5.974
			c0.925,2.537,0.878,5.433-0.323,8.062c-1.209,2.636-3.377,4.518-5.883,5.42c-1.473,0.534-3.058,0.676-4.641,0.5l-8.097,17.565
			l-18.835,6.776l-20.309,7.296l-2.955,6.376l11.676-8.189l27.309,5.234l23.281,4.456l17.255-12.072
			c-0.673-2.073-0.888-4.232-0.53-6.304c0.545-3.287,2.367-6.346,5.28-8.396c2.905-2.036,6.402-2.679,9.671-2.072
			c3.27,0.606,6.36,2.483,8.442,5.458c2.078,2.99,2.79,6.532,2.235,9.833c-0.545,3.308-2.359,6.376-5.282,8.423
			c-2.919,2.054-6.443,2.692-9.715,2.065c-1.915-0.363-3.734-1.212-5.344-2.401l-19.462,13.608l-24.442-4.712l-26.233-5.054
			l-9.653,6.77l8.927-0.679l17.32,15.12l14.76,12.885l17.154-1.244c0.287-1.381,0.81-2.671,1.559-3.802
			c0.714-1.119,1.643-2.119,2.785-2.916c2.393-1.658,5.244-2.171,7.91-1.651c2.673,0.512,5.173,2.078,6.873,4.539
			c1.698,2.461,2.264,5.393,1.81,8.104c-0.16,0.961-0.482,1.882-0.911,2.758c-0.263,0.593-0.572,1.158-0.932,1.687l11.333,16.521
			l-3.418,20.592l-3.724,22.371l1.181,1.743c0.935,0.271,1.834,0.496,2.683,0.68l-1.012-10.979l17.965-21.651l15.179-18.297
			l-2.096-21.496c-2.108-0.479-4.073-1.417-5.685-2.81c-2.568-2.192-4.323-5.371-4.677-8.977c-0.351-3.596,0.79-6.983,2.884-9.506
			c2.096-2.522,5.202-4.24,8.747-4.503c3.567-0.26,6.951,0.962,9.521,3.144c2.571,2.186,4.344,5.351,4.71,8.959
			c0.373,3.618-0.773,7.011-2.88,9.548c-1.225,1.489-2.832,2.632-4.634,3.426l2.373,24.219L381.72,398.58l-17.257,20.78
			l0.971,10.355c0.222,0.26,0.445,0.517,0.668,0.77l3.397-7.508l21.928-7.637l18.599-6.476l7.271-16.136
			c-1.354-1.238-2.418-2.741-3.034-4.416c-0.991-2.654-0.977-5.669,0.24-8.389c1.22-2.706,3.45-4.634,6.034-5.542
			c2.589-0.904,5.583-0.81,8.309,0.52c2.74,1.336,4.73,3.657,5.732,6.305c0.999,2.658,0.992,5.676-0.225,8.396
			c-1.221,2.735-3.457,4.663-6.054,5.567c-1.527,0.538-3.176,0.661-4.829,0.454l-8.188,18.191l-19.531,6.791l-21.059,7.307
			l-2.989,6.609l12.049-8.367l28.532,5.858L436.612,437l17.812-12.337c-0.73-2.168-0.984-4.424-0.643-6.581
			c0.524-3.417,2.377-6.584,5.384-8.676c3-2.081,6.635-2.698,10.052-2.02c3.418,0.68,6.666,2.681,8.88,5.814
			c2.212,3.152,3.003,6.854,2.475,10.289c-0.522,3.438-2.371,6.613-5.389,8.708c-3.017,2.096-6.677,2.71-10.099,2.013
			c-2.002-0.407-3.913-1.322-5.605-2.586l-20.096,13.905l-25.541-5.273l-27.408-5.654l-8.625,5.986
			c15.042,9.695,29.711,8.755,29.711,8.755c32.224,27.368,50.319-2.681,50.319-2.681s6.353,7.703,26.808,0.621
			c20.635-7.144,15.308-39.16,15.308-39.16L312.989,218.537z M343.982,370.332c-0.818,0.277-1.678,0.467-2.581,0.531
			c-2.923,0.213-5.683-0.813-7.765-2.627c-1.218-1.063-2.166-2.415-2.833-3.932l-19.334,1.384l-15.475-13.539l-16.607-14.53
			l-16.654,0.347c5.996,7.044,13.907,12.128,13.907,12.128s1.408,8.034,8.427,18.073l36.76,9.286l8.903,24.995l4.313,12.122
			c3.799,4.764,8.106,7.979,12.249,10.138l3.374-20.193l3.277-19.629L343.982,370.332z M322.296,401.634L316,383.865l-22.231-5.314
			c13.655,14.363,21.601,15.256,23.894,19.343C317.117,396.921,319.352,398.875,322.296,401.634z M339.158,368.209
			c2.104,0.418,4.333,0.011,6.21-1.302c0.657-0.455,1.218-0.992,1.694-1.584c1.21-1.603,1.853-3.654,1.656-5.853
			c-0.216-2.34-1.338-4.379-2.977-5.797c-1.64-1.418-3.791-2.212-6.083-2.045c-2.288,0.171-4.271,1.258-5.629,2.895
			c-0.076,0.092-0.143,0.191-0.215,0.287c-0.742,1.033-1.23,2.215-1.437,3.456c-0.363,2.126,0.07,4.412,1.401,6.354
			C335.098,366.561,337.059,367.793,339.158,368.209z M513.544,209.056c-3.14-3.25-5.088-5.595-2.757-4.287
			c-4.088-2.294-4.979-10.239-19.344-23.893l5.314,22.229L513.544,209.056z M478.583,198.574l-1.387,19.336
			c1.516,0.667,2.872,1.614,3.933,2.833c1.814,2.082,2.84,4.841,2.628,7.765c-0.063,0.903-0.254,1.764-0.531,2.583l14.553,9.959
			l19.629-3.276l20.194-3.374c-2.157-4.142-5.371-8.449-10.133-12.247l-12.13-4.315l-24.994-8.904l-9.284-36.759
			c-10.039-7.021-18.075-8.429-18.075-8.429s-5.068-8.104-12.095-14.294l-0.38,17.042l14.532,16.608L478.583,198.574z
			 M270.337,287.611l-8.018-23.21l17.041-46.133c-5.125,2.883-10.781,7.148-16.937,13.304c-15.901,15.901-8.75,38.464-8.75,38.464
			c-14.237,13.347-5.921,33.718-0.464,43.647l-0.399-5.054L270.337,287.611z M477.514,220.882c-1.944-1.33-4.23-1.764-6.355-1.399
			c-1.234,0.205-2.41,0.69-3.441,1.425c-0.1,0.076-0.204,0.146-0.301,0.227c-1.636,1.358-2.726,3.341-2.895,5.628
			c-0.167,2.293,0.625,4.444,2.043,6.083c1.42,1.641,3.457,2.762,5.8,2.978c2.212,0.199,4.274-0.454,5.878-1.678
			c0.581-0.471,1.11-1.023,1.558-1.67c1.312-1.878,1.72-4.108,1.304-6.21C480.685,224.164,479.451,222.204,477.514,220.882z
			 M400.506,157.443l21.018-17.526l6.499,0.513c-9.248-5.351-31.063-15.333-45.104-0.355c0,0-22.559-7.145-38.457,8.753
			c-6.474,6.474-10.86,12.425-13.742,17.801l46.574-17.204L400.506,157.443z M397.736,349.871c1.645-2.009,2.527-4.655,2.244-7.498
			c-0.277-2.838-1.658-5.307-3.684-7.028c-2.02-1.718-4.671-2.674-7.463-2.459c-2.808,0.21-5.213,1.541-6.864,3.533
			c-1.657,1.983-2.547,4.626-2.269,7.462c0.277,2.827,1.651,5.31,3.665,7.039c2.016,1.727,4.662,2.68,7.461,2.481
			C393.651,353.195,396.066,351.857,397.736,349.871z M429.153,238.037c-2.343-1.625-5.103-2.17-7.692-1.734
			c-2.586,0.438-4.974,1.852-6.577,4.143c-1.608,2.295-2.109,5.023-1.63,7.591c0.476,2.577,1.938,4.975,4.289,6.623
			c2.346,1.631,5.113,2.187,7.706,1.75c2.602-0.434,4.993-1.838,6.599-4.143c1.612-2.307,2.11-5.043,1.631-7.619
			C432.977,242.073,431.514,239.672,429.153,238.037z M500.435,303.558c-2.084-0.777-4.436-0.777-6.571,0.191
			c-2.143,0.961-3.647,2.698-4.354,4.737c-0.713,2.035-0.634,4.356,0.411,6.523c1.049,2.146,2.855,3.705,4.947,4.487
			c2.089,0.785,4.437,0.792,6.572-0.17c2.149-0.974,3.662-2.71,4.378-4.751c0.706-2.049,0.628-4.376-0.435-6.534
			C504.328,305.89,502.526,304.333,500.435,303.558z M456.771,266.808c-2.831-0.278-5.477,0.611-7.459,2.269
			c-1.996,1.649-3.325,4.057-3.534,6.861c-0.212,2.795,0.741,5.445,2.459,7.465c1.722,2.025,4.192,3.407,7.029,3.684
			c2.842,0.282,5.489-0.598,7.497-2.244c1.986-1.67,3.321-4.084,3.528-6.907c0.201-2.801-0.752-5.448-2.48-7.463
			C462.083,268.46,459.599,267.083,456.771,266.808z M427.468,392.922c2.043-0.715,3.777-2.222,4.75-4.372
			c0.966-2.136,0.957-4.485,0.173-6.577c-0.781-2.088-2.343-3.896-4.487-4.946c-2.166-1.046-4.488-1.124-6.522-0.406
			c-2.041,0.702-3.776,2.211-4.739,4.351c-0.968,2.139-0.968,4.485-0.188,6.573c0.773,2.088,2.329,3.89,4.481,4.95
			C423.092,393.554,425.42,393.634,427.468,392.922z M539.595,345.692c-2.468-1.727-5.356-2.336-8.048-1.917
			c-2.688,0.419-5.158,1.86-6.798,4.225c-1.644,2.37-2.126,5.205-1.587,7.89c0.53,2.693,2.094,5.216,4.566,6.966
			c2.474,1.732,5.364,2.354,8.064,1.937c2.707-0.414,5.179-1.846,6.82-4.224c1.646-2.383,2.128-5.228,1.587-7.922
			C543.641,349.955,542.081,347.431,539.595,345.692z M357.542,320.584c2.578,0.481,5.313-0.018,7.618-1.629
			c2.306-1.607,3.71-3.998,4.144-6.6c0.436-2.595-0.12-5.359-1.751-7.706c-1.646-2.352-4.044-3.815-6.622-4.289
			c-2.569-0.481-5.296,0.02-7.592,1.629c-2.291,1.604-3.705,3.992-4.142,6.578c-0.438,2.588,0.108,5.35,1.732,7.693
			C352.565,318.622,354.967,320.083,357.542,320.584z M321.512,284.277c1.969-0.714,3.655-2.187,4.618-4.262
			c0.953-2.063,0.976-4.315,0.25-6.31c-0.724-1.996-2.197-3.71-4.243-4.688c-2.065-0.972-4.292-1.018-6.255-0.304
			c-1.967,0.706-3.654,2.173-4.604,4.24c-0.956,2.063-0.988,4.318-0.268,6.309c0.716,1.996,2.186,3.703,4.237,4.688
			C317.304,284.938,319.537,284.984,321.512,284.277z M562.234,294.626c0,0,0.943-14.671-8.753-29.715l-5.987,8.629l5.654,27.408
			l5.275,25.543l-13.906,20.095c1.264,1.693,2.176,3.604,2.582,5.606c0.703,3.418,0.089,7.083-2.008,10.097
			c-2.094,3.019-5.268,4.866-8.709,5.39c-3.434,0.53-7.138-0.264-10.286-2.474c-3.135-2.215-5.136-5.462-5.816-8.88
			c-0.679-3.417-0.06-7.053,2.02-10.051c2.093-3.008,5.26-4.862,8.678-5.384c2.155-0.344,4.41-0.089,6.58,0.642l12.335-17.814
			l-4.988-24.327l-5.855-28.53l8.365-12.051l-6.605,2.99l-7.308,21.056l-6.791,19.533l-18.194,8.189
			c0.209,1.652,0.081,3.303-0.452,4.83c-0.906,2.599-2.833,4.833-5.565,6.053c-2.723,1.216-5.74,1.223-8.4,0.223
			c-2.646-1-4.965-2.99-6.307-5.732c-1.327-2.724-1.423-5.719-0.514-8.307c0.908-2.584,2.835-4.814,5.538-6.036
			c2.723-1.217,5.733-1.231,8.39-0.24c1.672,0.617,3.178,1.679,4.416,3.035l16.139-7.27l6.476-18.602l7.636-21.927l7.51-3.399
			c-0.252-0.223-0.509-0.446-0.768-0.667l-10.361-0.969l-20.78,17.257l-19.213,15.914l-24.22-2.371
			c-0.794,1.799-1.936,3.407-3.427,4.632c-2.538,2.106-5.927,3.254-9.546,2.881c-3.609-0.367-6.776-2.14-8.961-4.712
			c-2.185-2.569-3.403-5.952-3.146-9.521c0.264-3.543,1.983-6.65,4.504-8.745c2.523-2.097,5.914-3.236,9.506-2.886
			c3.607,0.355,6.785,2.109,8.978,4.677c1.393,1.611,2.331,3.576,2.809,5.686l21.498,2.094l18.296-15.179l21.652-17.965l10.98,1.013
			c-0.184-0.848-0.409-1.747-0.68-2.682l-1.743-1.181l-22.373,3.723l-20.595,3.418l-16.519-11.332
			c-0.546,0.373-1.132,0.693-1.746,0.96c-0.858,0.413-1.761,0.725-2.699,0.882c-2.711,0.454-5.642-0.113-8.103-1.81
			c-2.462-1.7-4.027-4.202-4.541-6.874c-0.518-2.666-0.004-5.518,1.654-7.909c0.802-1.149,1.809-2.084,2.938-2.801
			c1.126-0.741,2.408-1.258,3.779-1.542l1.245-17.155l-12.885-14.76l-15.122-17.321l0.679-8.926l-6.768,9.653l5.058,26.233
			l4.706,24.442l-13.605,19.462c1.191,1.609,2.039,3.429,2.404,5.345c0.624,3.271-0.011,6.794-2.066,9.715
			c-2.049,2.922-5.117,4.736-8.424,5.282c-3.3,0.555-6.844-0.157-9.833-2.235c-2.974-2.083-4.852-5.172-5.458-8.443
			c-0.606-3.269,0.036-6.765,2.073-9.67c2.049-2.915,5.106-4.735,8.393-5.281c2.07-0.357,4.233-0.143,6.305,0.53l12.072-17.255
			l-4.456-23.281l-5.235-27.309l8.191-11.675l-6.377,2.955l-7.297,20.307l-6.776,18.836l-17.566,8.097
			c0.179,1.583,0.036,3.169-0.497,4.642c-0.903,2.504-2.784,4.674-5.421,5.882c-2.628,1.202-5.525,1.248-8.062,0.324
			c-2.526-0.925-4.727-2.805-5.974-5.419c-1.236-2.598-1.288-5.47-0.385-7.967c0.907-2.492,2.785-4.659,5.398-5.865
			c2.626-1.204,5.514-1.257,8.052-0.34c1.595,0.57,3.024,1.571,4.196,2.855l15.581-7.188l6.461-17.938l7.623-21.148l8.302-3.848
			l-11.706-0.94l-20.172,16.835l-24.113-7.358L327.11,175.42c-4.452,15.767,4.321,24.675,4.321,24.675l189.59,186.965
			c0,0,32.015,5.328,39.156-15.308c7.082-20.456-0.619-26.807-0.619-26.807S589.604,326.85,562.234,294.626z M392.155,198.116
			c-1.99-0.72-4.247-0.688-6.309,0.269c-2.066,0.95-3.534,2.636-4.239,4.603c-0.715,1.963-0.669,4.19,0.302,6.255
			c0.979,2.046,2.694,3.52,4.688,4.242c1.995,0.728,4.249,0.703,6.31-0.249c2.075-0.962,3.546-2.649,4.263-4.618
			c0.707-1.976,0.662-4.208-0.329-6.266C395.858,200.302,394.15,198.833,392.155,198.116z"/>
	</g>
</g>
<path fill="none" d="M260.541,334.405l24.239-0.504l16.607,14.53l15.475,13.539l19.334-1.384c0.667,1.517,1.615,2.869,2.833,3.932
	c2.082,1.813,4.842,2.84,7.765,2.627c2.917-0.207,5.456-1.604,7.19-3.691c1.732-2.086,2.677-4.881,2.406-7.86
	c-0.279-2.969-1.711-5.588-3.8-7.393c-2.086-1.803-4.851-2.813-7.755-2.604c-2.909,0.22-5.451,1.615-7.173,3.699
	c-1.098,1.307-1.815,2.914-2.176,4.651l-17.154,1.244l-14.76-12.885l-17.32-15.12l-8.927,0.679l9.653-6.77l26.233,5.054
	l24.442,4.712l19.462-13.607c1.61,1.189,3.429,2.038,5.344,2.401c3.272,0.626,6.796-0.012,9.715-2.065
	c2.923-2.046,4.737-5.115,5.282-8.423c0.555-3.301-0.157-6.844-2.235-9.833c-2.082-2.976-5.172-4.852-8.442-5.458
	c-3.27-0.607-6.767,0.036-9.671,2.072c-2.913,2.049-4.735,5.109-5.28,8.396c-0.358,2.072-0.143,4.231,0.53,6.304l-17.255,12.071
	l-23.281-4.455l-27.309-5.234l-11.676,8.189l2.955-6.376l20.309-7.296l18.835-6.777l8.097-17.565
	c1.583,0.177,3.168,0.035,4.641-0.499c2.506-0.903,4.674-2.785,5.883-5.42c1.201-2.629,1.249-5.525,0.323-8.063
	c-0.925-2.526-2.807-4.726-5.419-5.974c-2.599-1.237-5.47-1.29-7.967-0.384c-2.492,0.906-4.659,2.785-5.865,5.397
	c-1.203,2.626-1.256,5.515-0.339,8.051c0.57,1.596,1.57,3.026,2.855,4.197l-7.188,15.58l-17.938,6.462l-21.148,7.623l-3.848,8.304
	l-0.94-11.708l16.836-20.171l-7.359-24.112l19.856-56.884c1.734-0.787,3.288-1.903,4.48-3.344c2.05-2.458,3.193-5.714,2.883-9.166
	c-0.304-3.44-1.96-6.438-4.394-8.485c-2.432-2.044-5.656-3.16-9.077-2.857c-3.396,0.307-6.395,1.996-8.435,4.438
	c-2.039,2.442-3.174,5.696-2.886,9.125c0.292,3.438,1.931,6.448,4.363,8.502c1.525,1.305,3.395,2.171,5.407,2.596l-20.047,54.272
	l8.018,23.21l-17.527,21.019l1.12,14.159L260.541,334.405z M356.322,312.542c-1.624-2.343-2.17-5.105-1.732-7.693
	c0.437-2.585,1.852-4.974,4.142-6.578c2.295-1.609,5.022-2.11,7.592-1.629c2.578,0.474,4.976,1.938,6.622,4.289
	c1.631,2.346,2.187,5.11,1.751,7.706c-0.434,2.602-1.838,4.993-4.144,6.6c-2.306,1.611-5.041,2.11-7.619,1.628
	C360.359,316.364,357.957,314.902,356.322,312.542z M316.402,275.542c-0.72-1.991-0.688-4.246,0.268-6.309
	c0.951-2.067,2.638-3.534,4.604-4.24c1.964-0.713,4.19-0.668,6.256,0.304c2.045,0.979,3.519,2.693,4.243,4.688
	c0.725,1.995,0.703,4.247-0.25,6.31c-0.962,2.075-2.648,3.547-4.618,4.262c-1.975,0.707-4.208,0.662-6.265-0.327
	C318.588,279.246,317.118,277.538,316.402,275.542z M339.42,350.804c1.358-1.636,3.341-2.724,5.629-2.895
	c2.292-0.167,4.443,0.626,6.083,2.045c1.639,1.418,2.761,3.457,2.977,5.797c0.209,2.339-0.523,4.519-1.887,6.159
	c-1.363,1.639-3.343,2.735-5.635,2.894c-2.293,0.157-4.446-0.64-6.087-2.058c-1.629-1.43-2.753-3.463-2.959-5.808
	C337.334,354.608,338.062,352.438,339.42,350.804z M280.659,195.08c-0.229-2.703,0.656-5.242,2.271-7.163
	c1.606-1.929,3.928-3.237,6.617-3.481c2.678-0.247,5.204,0.625,7.115,2.235c1.917,1.613,3.208,3.95,3.437,6.657
	c0.232,2.71-0.646,5.252-2.248,7.196c-1.625,1.923-3.955,3.237-6.661,3.478c-2.685,0.234-5.205-0.637-7.114-2.254
	C282.172,200.127,280.887,197.776,280.659,195.08z"/>
<path fill="none" d="M376.469,441.518l9.964-6.915l27.408,5.654l25.541,5.273l20.096-13.905c1.692,1.264,3.604,2.179,5.605,2.586
	c3.422,0.697,7.082,0.083,10.099-2.013c3.018-2.095,4.866-5.27,5.389-8.708c0.528-3.436-0.263-7.137-2.475-10.289
	c-2.214-3.134-5.462-5.135-8.88-5.814c-3.417-0.679-7.052-0.062-10.052,2.02c-3.007,2.092-4.859,5.259-5.384,8.676
	c-0.342,2.157-0.088,4.413,0.643,6.581L436.612,437l-24.328-4.986l-28.532-5.858l-12.049,8.367l2.989-6.609l21.059-7.307
	l19.531-6.791l8.188-18.191c1.653,0.207,3.302,0.084,4.829-0.454c2.597-0.904,4.833-2.832,6.054-5.567
	c1.217-2.72,1.224-5.737,0.225-8.396c-1.002-2.647-2.992-4.969-5.732-6.305c-2.726-1.329-5.72-1.424-8.309-0.52
	c-2.584,0.908-4.814,2.836-6.034,5.542c-1.217,2.72-1.231,5.734-0.24,8.389c0.616,1.675,1.68,3.178,3.034,4.416l-7.271,16.136
	l-18.599,6.476l-21.928,7.637l-3.892,8.6l-1.145-12.217l17.257-20.78l15.917-19.215l-2.373-24.219
	c1.802-0.793,3.409-1.937,4.634-3.426c2.107-2.538,3.253-5.93,2.88-9.548c-0.366-3.608-2.139-6.774-4.71-8.959
	c-2.569-2.182-5.953-3.404-9.521-3.144c-3.545,0.263-6.651,1.981-8.747,4.503c-2.094,2.523-3.235,5.91-2.884,9.506
	c0.354,3.605,2.108,6.784,4.677,8.977c1.611,1.392,3.576,2.33,5.685,2.81l2.096,21.496l-15.179,18.297l-17.965,21.651l1.362,14.777
	l-4.214-6.221l3.724-22.371l3.418-20.592l-11.366-16.569c0.948-1.316,1.612-2.813,1.876-4.396c0.454-2.711-0.112-5.643-1.81-8.104
	c-1.7-2.46-4.2-4.026-6.873-4.539c-2.666-0.52-5.517-0.006-7.91,1.651c-2.378,1.661-3.858,4.184-4.315,6.884
	c-0.461,2.698,0.097,5.625,1.782,8.091c1.693,2.472,4.19,4.05,6.867,4.568c1.683,0.342,3.436,0.207,5.098-0.324l10.075,14.721
	l-3.277,19.629l-3.897,23.326l5.204,7.699l-11.54-5.822l-9.703-27.27l-8.903-24.995L276.61,366.03
	c0.207-2.053,0.012-4.122-0.665-6.043c-1.157-3.276-3.53-6.137-6.84-7.763c-3.301-1.63-6.924-1.752-10.096-0.61
	c-3.172,1.118-5.91,3.511-7.474,6.873c-1.547,3.337-1.613,7.07-0.473,10.347c1.139,3.273,3.513,6.146,6.805,7.789
	c3.313,1.646,6.95,1.787,10.132,0.65c2.01-0.693,3.805-1.974,5.276-3.622L316,383.865l8.457,23.867l10.103,28.482l13.913,7.031
	L376.469,441.518z M458.582,426.7c-1.725-2.466-2.333-5.353-1.914-8.044c0.418-2.691,1.857-5.16,4.224-6.799
	c2.372-1.645,5.206-2.128,7.89-1.587c2.695,0.526,5.215,2.092,6.966,4.565c1.734,2.473,2.355,5.363,1.939,8.063
	c-0.416,2.709-1.849,5.182-4.228,6.819c-2.382,1.653-5.226,2.129-7.919,1.591C462.846,430.746,460.323,429.188,458.582,426.7z
	 M416.453,387.544c-0.779-2.088-0.779-4.435,0.188-6.573c0.963-2.14,2.698-3.648,4.739-4.351c2.034-0.718,4.356-0.64,6.522,0.406
	c2.145,1.05,3.706,2.858,4.487,4.946c0.784,2.092,0.793,4.441-0.173,6.577c-0.973,2.15-2.707,3.657-4.75,4.372
	c-2.048,0.712-4.376,0.632-6.533-0.428C418.782,391.434,417.227,389.632,416.453,387.544z M379.701,343.88
	c-0.278-2.835,0.612-5.479,2.269-7.462c1.65-1.992,4.056-3.322,6.864-3.533c2.792-0.214,5.443,0.742,7.463,2.459
	c2.025,1.721,3.407,4.19,3.684,7.028c0.283,2.843-0.599,5.489-2.244,7.498c-1.67,1.986-4.085,3.324-6.909,3.53
	c-2.799,0.199-5.446-0.754-7.461-2.481C381.352,349.19,379.978,346.707,379.701,343.88z M339.158,368.209
	c-2.099-0.416-4.06-1.648-5.381-3.59c-1.331-1.941-1.764-4.228-1.401-6.354c0.354-2.122,1.507-4.081,3.396-5.397
	c1.866-1.31,4.094-1.7,6.195-1.294c2.105,0.406,4.055,1.621,5.381,3.557c1.336,1.947,1.775,4.227,1.429,6.359
	c-0.365,2.136-1.511,4.104-3.41,5.417C343.49,368.22,341.261,368.627,339.158,368.209z M267.031,374.512
	c-2.5,0.881-5.344,0.779-7.935-0.511c-2.607-1.291-4.451-3.544-5.346-6.119c-0.901-2.567-0.848-5.477,0.374-8.113
	c1.213-2.636,3.365-4.502,5.855-5.388c2.5-0.896,5.318-0.796,7.911,0.483c2.605,1.289,4.461,3.517,5.374,6.097
	c0.905,2.575,0.867,5.479-0.362,8.143C271.683,371.75,269.538,373.622,267.031,374.512z"/>
<g opacity="0.3">
	<g>
		<path fill="#1D1D1B" d="M499.954,408.124L312.989,218.537c0,0-8.798-9.001-24.734-4.148l-18.087,51.815l7.359,24.112
			l-16.836,20.171l0.94,11.708l3.848-8.304l21.148-7.623l17.938-6.463l7.188-15.58c-1.286-1.17-2.285-2.601-2.855-4.196
			c-0.917-2.537-0.863-5.426,0.339-8.052c1.207-2.613,3.373-4.491,5.865-5.397c2.497-0.905,5.368-0.853,7.967,0.384
			c2.612,1.248,4.494,3.447,5.419,5.974c0.925,2.537,0.878,5.433-0.323,8.062c-1.209,2.636-3.377,4.518-5.883,5.42
			c-1.473,0.534-3.058,0.676-4.641,0.5l-8.097,17.565l-18.835,6.776l-20.309,7.296l-2.955,6.376l11.676-8.189l27.309,5.234
			l23.281,4.456l17.255-12.072c-0.673-2.073-0.888-4.232-0.53-6.304c0.545-3.287,2.367-6.346,5.28-8.396
			c2.905-2.036,6.402-2.679,9.671-2.072c3.27,0.606,6.36,2.483,8.442,5.458c2.078,2.99,2.79,6.532,2.235,9.833
			c-0.545,3.308-2.359,6.376-5.282,8.423c-2.919,2.054-6.443,2.692-9.715,2.065c-1.915-0.363-3.734-1.212-5.344-2.401
			l-19.462,13.608l-24.442-4.712l-26.233-5.054l-9.653,6.77l8.927-0.679l17.32,15.12l14.76,12.885l17.154-1.244
			c0.287-1.381,0.81-2.671,1.559-3.802c0.714-1.119,1.643-2.119,2.785-2.916c2.393-1.658,5.244-2.171,7.91-1.651
			c2.673,0.512,5.173,2.078,6.873,4.539c1.698,2.461,2.264,5.393,1.81,8.104c-0.16,0.961-0.482,1.882-0.911,2.758
			c-0.263,0.593-0.572,1.158-0.932,1.687l11.333,16.521l-3.418,20.592l-3.724,22.371l1.181,1.743
			c0.935,0.271,1.834,0.496,2.683,0.68l-1.012-10.979l17.965-21.651l15.179-18.297l-2.096-21.496
			c-2.108-0.479-4.073-1.417-5.685-2.81c-2.568-2.192-4.323-5.371-4.677-8.977c-0.351-3.596,0.79-6.983,2.884-9.506
			c2.096-2.522,5.202-4.24,8.747-4.503c3.567-0.26,6.951,0.962,9.521,3.144c2.571,2.186,4.344,5.351,4.71,8.959
			c0.373,3.618-0.773,7.011-2.88,9.548c-1.225,1.489-2.832,2.632-4.634,3.426l2.373,24.219L381.72,398.58l-17.257,20.78
			l0.971,10.355c0.222,0.26,0.445,0.517,0.668,0.77l3.397-7.508l21.928-7.637l18.599-6.476l7.271-16.136
			c-1.354-1.238-2.418-2.741-3.034-4.416c-0.991-2.654-0.977-5.669,0.24-8.389c1.22-2.706,3.45-4.634,6.034-5.542
			c2.589-0.904,5.583-0.81,8.309,0.52c2.74,1.336,4.73,3.657,5.732,6.305c0.999,2.658,0.992,5.676-0.225,8.396
			c-1.221,2.735-3.457,4.663-6.054,5.567c-1.527,0.538-3.176,0.661-4.829,0.454l-8.188,18.191l-19.531,6.791l-21.059,7.307
			l-2.989,6.609l12.049-8.367l28.532,5.858L436.612,437l17.812-12.337c-0.73-2.168-0.984-4.424-0.643-6.581
			c0.524-3.417,2.377-6.584,5.384-8.676c3-2.081,6.635-2.698,10.052-2.02c3.418,0.68,6.666,2.681,8.88,5.814
			c2.212,3.152,3.003,6.854,2.475,10.289c-0.522,3.438-2.371,6.613-5.389,8.708c-3.017,2.096-6.677,2.71-10.099,2.013
			c-2.002-0.407-3.913-1.322-5.605-2.586l-20.096,13.905l-25.541-5.273l-27.408-5.654l-8.625,5.986
			c15.042,9.695,29.711,8.755,29.711,8.755c32.224,27.368,50.319-2.681,50.319-2.681s6.353,7.703,26.808,0.621
			C505.281,440.141,499.954,408.124,499.954,408.124z M322.296,401.634L316,383.865l-22.231-5.314
			c13.655,14.363,21.601,15.256,23.894,19.343C317.117,396.921,319.352,398.875,322.296,401.634z M343.982,370.332
			c-0.818,0.277-1.678,0.467-2.581,0.531c-2.923,0.213-5.683-0.813-7.765-2.627c-1.218-1.063-2.166-2.415-2.833-3.932l-19.334,1.384
			l-15.475-13.539l-16.607-14.53l-16.654,0.347c5.996,7.044,13.907,12.128,13.907,12.128s1.408,8.034,8.427,18.073l36.76,9.286
			l8.903,24.995l4.313,12.122c3.799,4.764,8.106,7.979,12.249,10.138l3.374-20.193l3.277-19.629L343.982,370.332z M270.337,287.611
			l-8.018-23.21l17.041-46.133c-5.125,2.883-10.781,7.148-16.937,13.304c-15.901,15.901-8.75,38.464-8.75,38.464
			c-14.237,13.347-5.921,33.718-0.464,43.647l-0.399-5.054L270.337,287.611z M339.158,368.209c2.104,0.418,4.333,0.011,6.21-1.302
			c0.657-0.455,1.218-0.992,1.694-1.584c1.21-1.603,1.853-3.654,1.656-5.853c-0.216-2.34-1.338-4.379-2.977-5.797
			c-1.64-1.418-3.791-2.212-6.083-2.045c-2.288,0.171-4.271,1.258-5.629,2.895c-0.076,0.092-0.143,0.191-0.215,0.287
			c-0.742,1.033-1.23,2.215-1.437,3.456c-0.363,2.126,0.07,4.412,1.401,6.354C335.098,366.561,337.059,367.793,339.158,368.209z
			 M465.54,431.309c2.693,0.538,5.537,0.063,7.919-1.591c2.379-1.638,3.812-4.11,4.228-6.819c0.416-2.699-0.205-5.59-1.939-8.063
			c-1.751-2.474-4.271-4.039-6.966-4.565c-2.684-0.541-5.518-0.058-7.89,1.587c-2.366,1.639-3.806,4.107-4.224,6.799
			c-0.419,2.691,0.189,5.578,1.914,8.044C460.323,429.188,462.846,430.746,465.54,431.309z M321.512,284.277
			c1.969-0.714,3.655-2.187,4.618-4.262c0.953-2.063,0.976-4.315,0.25-6.31c-0.724-1.996-2.197-3.71-4.243-4.688
			c-2.065-0.972-4.292-1.018-6.255-0.304c-1.967,0.706-3.654,2.173-4.604,4.24c-0.956,2.063-0.988,4.318-0.268,6.309
			c0.716,1.996,2.186,3.703,4.237,4.688C317.304,284.938,319.537,284.984,321.512,284.277z M357.542,320.584
			c2.578,0.481,5.313-0.018,7.618-1.629c2.306-1.607,3.71-3.998,4.144-6.6c0.436-2.595-0.12-5.359-1.751-7.706
			c-1.646-2.352-4.044-3.815-6.622-4.289c-2.569-0.481-5.296,0.02-7.592,1.629c-2.291,1.604-3.705,3.992-4.142,6.578
			c-0.438,2.588,0.108,5.35,1.732,7.693C352.565,318.622,354.967,320.083,357.542,320.584z M397.736,349.871
			c1.645-2.009,2.527-4.655,2.244-7.498c-0.277-2.838-1.658-5.307-3.684-7.028c-2.02-1.718-4.671-2.674-7.463-2.459
			c-2.808,0.21-5.213,1.541-6.864,3.533c-1.657,1.983-2.547,4.626-2.269,7.462c0.277,2.827,1.651,5.31,3.665,7.039
			c2.016,1.727,4.662,2.68,7.461,2.481C393.651,353.195,396.066,351.857,397.736,349.871z M427.468,392.922
			c2.043-0.715,3.777-2.222,4.75-4.372c0.966-2.136,0.957-4.485,0.173-6.577c-0.781-2.088-2.343-3.896-4.487-4.946
			c-2.166-1.046-4.488-1.124-6.522-0.406c-2.041,0.702-3.776,2.211-4.739,4.351c-0.968,2.139-0.968,4.485-0.188,6.573
			c0.773,2.088,2.329,3.89,4.481,4.95C423.092,393.554,425.42,393.634,427.468,392.922z"/>
	</g>
</g>
<path fill="none" d="M260.541,334.405l24.239-0.504l16.607,14.53l15.475,13.539l19.334-1.384c0.667,1.517,1.615,2.869,2.833,3.932
	c2.082,1.813,4.842,2.84,7.765,2.627c2.917-0.207,5.456-1.604,7.19-3.691c1.732-2.086,2.677-4.881,2.406-7.86
	c-0.279-2.969-1.711-5.588-3.8-7.393c-2.086-1.803-4.851-2.813-7.755-2.604c-2.909,0.22-5.451,1.615-7.173,3.699
	c-1.098,1.307-1.815,2.914-2.176,4.651l-17.154,1.244l-14.76-12.885l-17.32-15.12l-8.927,0.679l9.653-6.77l26.233,5.054
	l24.442,4.712l19.462-13.607c1.61,1.189,3.429,2.038,5.344,2.401c3.272,0.626,6.796-0.012,9.715-2.065
	c2.923-2.046,4.737-5.115,5.282-8.423c0.555-3.301-0.157-6.844-2.235-9.833c-2.082-2.976-5.172-4.852-8.442-5.458
	c-3.27-0.607-6.767,0.036-9.671,2.072c-2.913,2.049-4.735,5.109-5.28,8.396c-0.358,2.072-0.143,4.231,0.53,6.304l-17.255,12.071
	l-23.281-4.455l-27.309-5.234l-11.676,8.189l2.955-6.376l20.309-7.296l18.835-6.777l8.097-17.565
	c1.583,0.177,3.168,0.035,4.641-0.499c2.506-0.903,4.674-2.785,5.883-5.42c1.201-2.629,1.249-5.525,0.323-8.063
	c-0.925-2.526-2.807-4.726-5.419-5.974c-2.599-1.237-5.47-1.29-7.967-0.384c-2.492,0.906-4.659,2.785-5.865,5.397
	c-1.203,2.626-1.256,5.515-0.339,8.051c0.57,1.596,1.57,3.026,2.855,4.197l-7.188,15.58l-17.938,6.462l-21.148,7.623l-3.848,8.304
	l-0.94-11.708l16.836-20.171l-7.359-24.112l19.856-56.884c1.734-0.787,3.288-1.903,4.48-3.344c2.05-2.458,3.193-5.714,2.883-9.166
	c-0.304-3.44-1.96-6.438-4.394-8.485c-2.432-2.044-5.656-3.16-9.077-2.857c-3.396,0.307-6.395,1.996-8.435,4.438
	c-2.039,2.442-3.174,5.696-2.886,9.125c0.292,3.438,1.931,6.448,4.363,8.502c1.525,1.305,3.395,2.171,5.407,2.596l-20.047,54.272
	l8.018,23.21l-17.527,21.019l1.12,14.159L260.541,334.405z M356.322,312.542c-1.624-2.343-2.17-5.105-1.732-7.693
	c0.437-2.585,1.852-4.974,4.142-6.578c2.295-1.609,5.022-2.11,7.592-1.629c2.578,0.474,4.976,1.938,6.622,4.289
	c1.631,2.346,2.187,5.11,1.751,7.706c-0.434,2.602-1.838,4.993-4.144,6.6c-2.306,1.611-5.041,2.11-7.619,1.628
	C360.359,316.364,357.957,314.902,356.322,312.542z M316.402,275.542c-0.72-1.991-0.688-4.246,0.268-6.309
	c0.951-2.067,2.638-3.534,4.604-4.24c1.964-0.713,4.19-0.668,6.256,0.304c2.045,0.979,3.519,2.693,4.243,4.688
	c0.725,1.995,0.703,4.247-0.25,6.31c-0.962,2.075-2.648,3.547-4.618,4.262c-1.975,0.707-4.208,0.662-6.265-0.327
	C318.588,279.246,317.118,277.538,316.402,275.542z M339.42,350.804c1.358-1.636,3.341-2.724,5.629-2.895
	c2.292-0.167,4.443,0.626,6.083,2.045c1.639,1.418,2.761,3.457,2.977,5.797c0.209,2.339-0.523,4.519-1.887,6.159
	c-1.363,1.639-3.343,2.735-5.635,2.894c-2.293,0.157-4.446-0.64-6.087-2.058c-1.629-1.43-2.753-3.463-2.959-5.808
	C337.334,354.608,338.062,352.438,339.42,350.804z M280.659,195.08c-0.229-2.703,0.656-5.242,2.271-7.163
	c1.606-1.929,3.928-3.237,6.617-3.481c2.678-0.247,5.204,0.625,7.115,2.235c1.917,1.613,3.208,3.95,3.437,6.657
	c0.232,2.71-0.646,5.252-2.248,7.196c-1.625,1.923-3.955,3.237-6.661,3.478c-2.685,0.234-5.205-0.637-7.114-2.254
	C282.172,200.127,280.887,197.776,280.659,195.08z"/>
<path fill="none" d="M376.469,441.518l9.964-6.915l27.408,5.654l25.541,5.273l20.096-13.905c1.692,1.264,3.604,2.179,5.605,2.586
	c3.422,0.697,7.082,0.083,10.099-2.013c3.018-2.095,4.866-5.27,5.389-8.708c0.528-3.436-0.263-7.137-2.475-10.289
	c-2.214-3.134-5.462-5.135-8.88-5.814c-3.417-0.679-7.052-0.062-10.052,2.02c-3.007,2.092-4.859,5.259-5.384,8.676
	c-0.342,2.157-0.088,4.413,0.643,6.581L436.612,437l-24.328-4.986l-28.532-5.858l-12.049,8.367l2.989-6.609l21.059-7.307
	l19.531-6.791l8.188-18.191c1.653,0.207,3.302,0.084,4.829-0.454c2.597-0.904,4.833-2.832,6.054-5.567
	c1.217-2.72,1.224-5.737,0.225-8.396c-1.002-2.647-2.992-4.969-5.732-6.305c-2.726-1.329-5.72-1.424-8.309-0.52
	c-2.584,0.908-4.814,2.836-6.034,5.542c-1.217,2.72-1.231,5.734-0.24,8.389c0.616,1.675,1.68,3.178,3.034,4.416l-7.271,16.136
	l-18.599,6.476l-21.928,7.637l-3.892,8.6l-1.145-12.217l17.257-20.78l15.917-19.215l-2.373-24.219
	c1.802-0.793,3.409-1.937,4.634-3.426c2.107-2.538,3.253-5.93,2.88-9.548c-0.366-3.608-2.139-6.774-4.71-8.959
	c-2.569-2.182-5.953-3.404-9.521-3.144c-3.545,0.263-6.651,1.981-8.747,4.503c-2.094,2.523-3.235,5.91-2.884,9.506
	c0.354,3.605,2.108,6.784,4.677,8.977c1.611,1.392,3.576,2.33,5.685,2.81l2.096,21.496l-15.179,18.297l-17.965,21.651l1.362,14.777
	l-4.214-6.221l3.724-22.371l3.418-20.592l-11.366-16.569c0.948-1.316,1.612-2.813,1.876-4.396c0.454-2.711-0.112-5.643-1.81-8.104
	c-1.7-2.46-4.2-4.026-6.873-4.539c-2.666-0.52-5.517-0.006-7.91,1.651c-2.378,1.661-3.858,4.184-4.315,6.884
	c-0.461,2.698,0.097,5.625,1.782,8.091c1.693,2.472,4.19,4.05,6.867,4.568c1.683,0.342,3.436,0.207,5.098-0.324l10.075,14.721
	l-3.277,19.629l-3.897,23.326l5.204,7.699l-11.54-5.822l-9.703-27.27l-8.903-24.995L276.61,366.03
	c0.207-2.053,0.012-4.122-0.665-6.043c-1.157-3.276-3.53-6.137-6.84-7.763c-3.301-1.63-6.924-1.752-10.096-0.61
	c-3.172,1.118-5.91,3.511-7.474,6.873c-1.547,3.337-1.613,7.07-0.473,10.347c1.139,3.273,3.513,6.146,6.805,7.789
	c3.313,1.646,6.95,1.787,10.132,0.65c2.01-0.693,3.805-1.974,5.276-3.622L316,383.865l8.457,23.867l10.103,28.482l13.913,7.031
	L376.469,441.518z M458.582,426.7c-1.725-2.466-2.333-5.353-1.914-8.044c0.418-2.691,1.857-5.16,4.224-6.799
	c2.372-1.645,5.206-2.128,7.89-1.587c2.695,0.526,5.215,2.092,6.966,4.565c1.734,2.473,2.355,5.363,1.939,8.063
	c-0.416,2.709-1.849,5.182-4.228,6.819c-2.382,1.653-5.226,2.129-7.919,1.591C462.846,430.746,460.323,429.188,458.582,426.7z
	 M416.453,387.544c-0.779-2.088-0.779-4.435,0.188-6.573c0.963-2.14,2.698-3.648,4.739-4.351c2.034-0.718,4.356-0.64,6.522,0.406
	c2.145,1.05,3.706,2.858,4.487,4.946c0.784,2.092,0.793,4.441-0.173,6.577c-0.973,2.15-2.707,3.657-4.75,4.372
	c-2.048,0.712-4.376,0.632-6.533-0.428C418.782,391.434,417.227,389.632,416.453,387.544z M379.701,343.88
	c-0.278-2.835,0.612-5.479,2.269-7.462c1.65-1.992,4.056-3.322,6.864-3.533c2.792-0.214,5.443,0.742,7.463,2.459
	c2.025,1.721,3.407,4.19,3.684,7.028c0.283,2.843-0.599,5.489-2.244,7.498c-1.67,1.986-4.085,3.324-6.909,3.53
	c-2.799,0.199-5.446-0.754-7.461-2.481C381.352,349.19,379.978,346.707,379.701,343.88z M339.158,368.209
	c-2.099-0.416-4.06-1.648-5.381-3.59c-1.331-1.941-1.764-4.228-1.401-6.354c0.354-2.122,1.507-4.081,3.396-5.397
	c1.866-1.31,4.094-1.7,6.195-1.294c2.105,0.406,4.055,1.621,5.381,3.557c1.336,1.947,1.775,4.227,1.429,6.359
	c-0.365,2.136-1.511,4.104-3.41,5.417C343.49,368.22,341.261,368.627,339.158,368.209z M267.031,374.512
	c-2.5,0.881-5.344,0.779-7.935-0.511c-2.607-1.291-4.451-3.544-5.346-6.119c-0.901-2.567-0.848-5.477,0.374-8.113
	c1.213-2.636,3.365-4.502,5.855-5.388c2.5-0.896,5.318-0.796,7.911,0.483c2.605,1.289,4.461,3.517,5.374,6.097
	c0.905,2.575,0.867,5.479-0.362,8.143C271.683,371.75,269.538,373.622,267.031,374.512z"/>
<g>
	<g>
		<polygon fill="#2D2D2B" points="537.653,423.953 537.211,424.4 371.531,258.727 371.974,258.28 		"/>
		<path fill="#2D2D2B" d="M217.324,126.834c0,0,155.473,179.788,193.442,217.755c0,0-78.854,55.063-185.173-15.188
			c0,0,54.668,97.147,174.267,98.647c45.469,0.57,60.346-21.699,87.038-21.888c27.617-0.196,53.356,20.891,53.356,20.891
			c-30.419-30.42-168.938-169.096-168.938-169.096s4.685,7.302-29.368-18.928C307.632,212.596,244.911,144.721,217.324,126.834z"/>
		<path fill="#4A4A49" d="M240.053,104.125c0,0,179.779,155.473,217.747,193.445c0,0,55.064-78.856-15.188-185.176
			c0,0,97.147,54.668,98.647,174.273c0.571,45.465-21.701,60.341-21.889,87.038c-0.197,27.613,20.885,53.346,20.885,53.346
			l-168.887-168.96c0,0,6.578,5.112-19.123-29.343C324.117,191.037,257.94,131.712,240.053,104.125z"/>
	</g>
</g>
<path fill-rule="evenodd" clip-rule="evenodd" fill="none" d="M312.989,218.537l186.965,189.587c0,0,5.327,32.017-15.308,39.16
	c-20.455,7.082-26.808-0.621-26.808-0.621s-18.096,30.049-50.319,2.681c0,0-24.467,1.583-42.605-20.225
	c0,0-19.216,0.919-31.48-16.691c0,0-17.183-17.051-15.771-14.534c-2.5-4.455-11.709-5.102-27.716-23.551
	c-11.29-12.705-13.307-24.249-13.307-24.249s-24.894-15.993-19.833-30.56c0,0-22.558-31.289-3.134-49.499
	c0,0-7.152-22.563,8.75-38.464C294.439,199.556,312.989,218.537,312.989,218.537z"/>
<g>
	<g>
		<g>
			<path fill="#2D2D2B" d="M257.683,502.115c2.109-1.866,4.903-2.804,8.386-2.804c4.282,0,8.994,1.249,14.139,3.74l4.121-9.155
				c-5.624-2.938-11.71-4.408-18.26-4.408c-4.504,0-8.554,0.864-12.149,2.589c-3.594,1.726-6.374,4.169-8.339,7.332
				c-1.965,3.164-2.947,6.788-2.947,10.881c0,2.524,0.422,4.834,1.27,6.922c0.846,2.096,2.068,4.021,3.667,5.774
				c1.597,1.762,4.074,3.712,7.428,5.851c4.185,2.651,6.933,4.834,8.243,6.541c1.31,1.71,1.965,3.664,1.965,5.872
				c0,3.323-1.262,5.92-3.786,7.786c-2.525,1.87-5.975,2.804-10.351,2.804c-5.656,0-11.247-1.547-16.775-4.648v10.739
				c4.409,2.393,9.969,3.591,16.679,3.591c8.115,0,14.481-1.902,19.098-5.705c4.617-3.802,6.926-9.058,6.926-15.765
				c0-3.737-0.943-7.053-2.828-9.947c-1.885-2.891-5.304-5.887-10.256-8.984c-3.291-2.078-5.439-3.604-6.446-4.576
				c-1.006-0.974-1.75-2.03-2.228-3.163c-0.479-1.137-0.719-2.455-0.719-3.955C254.52,506.423,255.573,503.985,257.683,502.115z
				 M342.637,507.556c-7.285,16.426-11.302,25.516-12.052,27.273c-0.753,1.754-1.767,4.365-3.044,7.834
				c-1.278,3.468-2.188,5.995-2.73,7.597h-0.289l0.144-11.218l-0.048-2.535l-0.911-28.951h-12.173l-13.323,29.667
				c-1.375,3.068-3.116,7.416-5.224,13.037h-0.288c0.288-5.048,0.462-8.963,0.528-11.744l-0.624-30.96h-10.591l2.252,53.008h12.556
				c10.192-22.651,15.712-34.987,16.559-37c0.846-2.012,1.67-4.009,2.468-5.992l-0.144,9.588l0.048,3.355l0.911,30.049h12.844
				l24.824-53.008H342.637z M362.603,498.451c1.118,0.831,2.524,1.245,4.218,1.245c2.076,0,3.754-0.653,5.032-1.965
				c1.277-1.307,1.917-3.098,1.917-5.367c0-1.725-0.528-3.011-1.582-3.856c-1.054-0.847-2.43-1.271-4.123-1.271
				c-2.269,0-4.026,0.672-5.271,2.012c-1.248,1.341-1.871,3.102-1.871,5.273C360.925,496.312,361.485,497.619,362.603,498.451z
				 M369.936,507.556h-11.263l-11.312,53.008h11.312L369.936,507.556z M416.413,516.086h13.273l1.87-8.53h-13.371l2.493-11.788
				h-6.998l-6.184,11.12l-1.884,0.813l0.03-0.145h-10.974l0.862-4.122c0.702-3.127,1.718-5.379,3.043-6.755
				c1.326-1.377,3.091-2.063,5.295-2.063c1.982,0,4.153,0.45,6.518,1.344l2.924-8.437c-3.068-1.373-6.437-2.06-10.112-2.06
				c-5.303,0-9.401,1.337-12.293,3.999c-2.891,2.673-5.04,7.169-6.444,13.495l-1.008,4.405l-9.297,3.646l-1.007,5.077h8.578
				l-10.4,48.98c-1.372,6.552-4.2,9.827-8.481,9.827c-1.597,0-3.417-0.319-5.463-0.959v9.104c1.886,0.734,4.264,1.101,7.141,1.101
				c4.697,0,8.499-1.42,11.407-4.264c2.906-2.844,5-7.285,6.278-13.32l10.687-50.47h12.253l-5.797,27.321
				c-0.512,2.364-0.766,4.456-0.766,6.275c0,7.892,4.375,11.839,13.13,11.839c1.915,0,3.833-0.21,5.75-0.624
				c1.918-0.414,3.436-0.894,4.555-1.438v-8.53c-2.655,0.995-5.066,1.485-7.238,1.485c-1.631,0-2.844-0.407-3.643-1.221
				c-0.799-0.817-1.198-1.906-1.198-3.283c0-1.184,0.207-2.65,0.625-4.408L416.413,516.086z"/>
		</g>
	</g>
	<path fill="#E42922" d="M473.96,543.589l5.101,16.975h16.192l-20.608-66.14h-19.623l-20.12,66.14h15.409l4.711-16.975H473.96z
		 M457.18,532.399l3.925-14.032c1.08-3.828,2.063-8.832,3.041-12.759h0.198c0.979,3.927,2.159,8.836,3.336,12.759l4.121,14.032
		H457.18z"/>
	<path fill="#E42922" d="M507.141,561.642c5.395,0,8.929-3.828,8.929-9.028c-0.099-5.494-3.63-9.126-8.732-9.126
		c-5.2,0-8.834,3.729-8.834,9.126C498.503,557.813,502.137,561.642,507.141,561.642z"/>
	<path fill="#E42922" d="M521.766,494.424v66.14h14.915v-66.14H521.766z"/>
	<path fill="#E42922" d="M552.78,561.642c5.395,0,8.928-3.828,8.928-9.028c-0.1-5.494-3.63-9.126-8.733-9.126
		c-5.201,0-8.831,3.729-8.831,9.126C544.144,557.813,547.773,561.642,552.78,561.642z"/>
	<g>
		<g>
			<path fill="#9C9B9B" d="M241.078,588.019l-6.594,17.635h2.168l1.874-5.164h6.729l1.896,5.164h2.168l-6.571-17.635H241.078z
				 M238.932,598.75l2.981-8.146l2.89,8.146H238.932z M255.483,605.653h1.671v-2.781h-1.671V605.653z M265.012,605.653h2.032
				v-17.609h-2.032V605.653z M274.901,605.653h1.671v-2.781h-1.671V605.653z M296.646,588.019h-2.032v17.635h10.973v-1.986h-8.941
				V588.019z M312.27,605.653h1.807V591.97h-1.807V605.653z M330.019,598.626c0.617-0.283,1.09-0.708,1.422-1.277
				c0.332-0.57,0.497-1.199,0.497-1.878c0-0.429-0.071-0.857-0.215-1.278c-0.143-0.425-0.345-0.799-0.608-1.13
				c-0.264-0.33-0.588-0.596-0.972-0.795c-0.384-0.2-0.81-0.298-1.276-0.298h-6.796v13.684h6.436c0.557,0,1.08-0.079,1.57-0.246
				c0.488-0.168,0.914-0.403,1.274-0.709c0.361-0.305,0.646-0.675,0.859-1.104c0.21-0.433,0.315-0.919,0.315-1.468
				c0-0.878-0.224-1.623-0.677-2.236C331.395,599.28,330.786,598.858,330.019,598.626z M323.876,593.706h4.357
				c0.557,0,1.016,0.203,1.377,0.599c0.362,0.396,0.542,0.9,0.542,1.515c0,0.596-0.196,1.097-0.588,1.503
				c-0.39,0.403-0.873,0.606-1.445,0.606h-4.244V593.706z M330.525,602.6c-0.114,0.265-0.266,0.497-0.461,0.693
				c-0.197,0.2-0.43,0.359-0.702,0.476s-0.558,0.171-0.857,0.171h-4.629v-4.395h4.765c0.285,0,0.556,0.063,0.812,0.186
				s0.475,0.287,0.654,0.486c0.18,0.196,0.324,0.429,0.429,0.694c0.106,0.265,0.159,0.544,0.159,0.846
				C330.695,602.051,330.639,602.334,330.525,602.6z M348.104,599.868c0.346-0.265,0.645-0.581,0.893-0.944
				c0.248-0.366,0.439-0.763,0.575-1.194c0.136-0.429,0.204-0.875,0.204-1.34c0-0.549-0.102-1.079-0.305-1.602
				c-0.204-0.52-0.489-0.995-0.857-1.417c-0.372-0.421-0.81-0.759-1.322-1.017c-0.512-0.258-1.07-0.385-1.671-0.385h-5.871v13.684
				h1.808v-4.818h3.544l3.069,4.818h2.079l-3.298-5.215C347.374,600.322,347.758,600.13,348.104,599.868z M345.62,599.073h-4.063
				v-5.342h3.951c0.331,0,0.644,0.072,0.938,0.214c0.292,0.138,0.551,0.33,0.778,0.57c0.226,0.239,0.401,0.52,0.53,0.843
				s0.19,0.668,0.19,1.031s-0.055,0.708-0.167,1.031c-0.114,0.323-0.271,0.61-0.475,0.857c-0.204,0.25-0.449,0.442-0.734,0.584
				C346.282,599.004,345.967,599.073,345.62,599.073z M361.472,591.97l-5.599,13.684h1.94l1.582-3.85h5.645l1.58,3.85h1.92
				l-5.578-13.684H361.472z M359.799,600.068l2.416-5.64l2.371,5.64H359.799z M383.463,599.868c0.346-0.265,0.645-0.581,0.891-0.944
				c0.249-0.366,0.441-0.763,0.578-1.194c0.135-0.429,0.204-0.875,0.204-1.34c0-0.549-0.102-1.079-0.305-1.602
				c-0.205-0.52-0.49-0.995-0.857-1.417c-0.371-0.421-0.81-0.759-1.322-1.017s-1.069-0.385-1.671-0.385h-5.871v13.684h1.808v-4.818
				h3.544l3.07,4.818h2.078l-3.297-5.215C382.733,600.322,383.117,600.13,383.463,599.868z M380.979,599.073h-4.063v-5.342h3.951
				c0.33,0,0.643,0.072,0.938,0.214c0.292,0.138,0.551,0.33,0.777,0.57c0.227,0.239,0.402,0.52,0.531,0.843
				c0.127,0.323,0.193,0.668,0.193,1.031s-0.057,0.708-0.17,1.031c-0.114,0.323-0.271,0.61-0.474,0.857
				c-0.204,0.25-0.447,0.442-0.734,0.584C381.642,599.004,381.327,599.073,380.979,599.073z M397.214,598.95l-4.087-6.98h-1.963
				l5.146,8.716v4.968h1.808v-4.942l5.192-8.741h-1.986L397.214,598.95z M419.929,605.653h1.809v-5.984h6.094v-1.663h-6.094v-4.274
				h7.223v-1.762h-9.031V605.653z M446.178,594.068c-0.564-0.657-1.24-1.18-2.021-1.579c-0.784-0.396-1.658-0.596-2.62-0.596
				c-0.934,0-1.791,0.192-2.575,0.573c-0.782,0.378-1.464,0.89-2.041,1.525c-0.581,0.64-1.033,1.373-1.356,2.197
				c-0.321,0.832-0.486,1.7-0.486,2.611c0,0.875,0.156,1.732,0.463,2.571c0.309,0.835,0.744,1.576,1.311,2.223
				c0.563,0.646,1.242,1.166,2.032,1.562c0.79,0.399,1.665,0.596,2.631,0.596c0.916,0,1.771-0.189,2.563-0.57
				c0.79-0.378,1.473-0.89,2.043-1.529c0.572-0.635,1.022-1.369,1.344-2.197c0.323-0.824,0.484-1.695,0.484-2.604
				c0-0.864-0.152-1.714-0.461-2.55C447.179,595.467,446.741,594.723,446.178,594.068z M445.78,600.675
				c-0.209,0.621-0.512,1.177-0.902,1.663c-0.391,0.49-0.868,0.883-1.435,1.181c-0.563,0.298-1.198,0.446-1.906,0.446
				s-1.344-0.146-1.907-0.432c-0.566-0.291-1.053-0.676-1.456-1.145c-0.406-0.472-0.719-1.017-0.937-1.642
				c-0.222-0.617-0.329-1.26-0.329-1.921c0-0.632,0.105-1.253,0.317-1.866c0.209-0.61,0.517-1.162,0.914-1.649
				c0.397-0.49,0.882-0.882,1.458-1.18c0.57-0.298,1.209-0.45,1.917-0.45c0.676,0,1.299,0.141,1.861,0.425
				c0.566,0.279,1.054,0.657,1.457,1.129c0.408,0.473,0.719,1.017,0.937,1.642c0.222,0.617,0.329,1.26,0.329,1.925
				C446.099,599.429,445.993,600.054,445.78,600.675z M463.461,599.868c0.349-0.265,0.645-0.581,0.892-0.944
				c0.249-0.366,0.441-0.763,0.577-1.194c0.135-0.429,0.204-0.875,0.204-1.34c0-0.549-0.102-1.079-0.308-1.602
				c-0.203-0.52-0.488-0.995-0.856-1.417c-0.37-0.421-0.809-0.759-1.32-1.017s-1.069-0.385-1.672-0.385h-5.871v13.684h1.807v-4.818
				h3.547l3.068,4.818h2.077l-3.296-5.215C462.731,600.322,463.116,600.13,463.461,599.868z M460.978,599.073h-4.064v-5.342h3.951
				c0.331,0,0.645,0.072,0.936,0.214c0.298,0.138,0.556,0.33,0.78,0.57c0.228,0.239,0.403,0.52,0.532,0.843
				c0.127,0.323,0.19,0.668,0.19,1.031s-0.054,0.708-0.167,1.031c-0.114,0.323-0.272,0.61-0.476,0.857
				c-0.203,0.25-0.446,0.442-0.733,0.584C461.642,599.004,461.326,599.073,460.978,599.073z M492.712,597.508
				c-0.472-0.381-1.048-0.701-1.714-0.959c-0.672-0.254-1.42-0.482-2.246-0.683c-0.725-0.178-1.351-0.355-1.876-0.52
				c-0.526-0.167-0.968-0.359-1.321-0.584c-0.354-0.226-0.614-0.494-0.779-0.807c-0.165-0.315-0.249-0.712-0.249-1.191
				c0-0.893,0.293-1.598,0.872-2.113c0.577-0.512,1.49-0.77,2.741-0.77c0.481,0,0.944,0.054,1.39,0.159
				c0.444,0.112,0.855,0.251,1.23,0.425c0.376,0.175,0.712,0.371,1.016,0.585c0.303,0.214,0.543,0.439,0.723,0.668l0.949-1.812
				c-0.679-0.61-1.454-1.101-2.325-1.468c-0.874-0.359-1.853-0.545-2.937-0.545c-0.826,0-1.597,0.113-2.303,0.338
				c-0.708,0.222-1.318,0.556-1.828,1.003c-0.513,0.446-0.912,0.995-1.197,1.642c-0.288,0.646-0.43,1.391-0.43,2.236
				c0,0.694,0.105,1.29,0.317,1.787c0.209,0.494,0.523,0.919,0.938,1.268c0.412,0.349,0.928,0.646,1.547,0.89
				c0.615,0.251,1.333,0.483,2.145,0.697c0.737,0.199,1.395,0.396,1.974,0.585c0.581,0.192,1.067,0.41,1.458,0.657
				c0.391,0.25,0.687,0.545,0.892,0.883c0.203,0.341,0.305,0.759,0.305,1.252c0,0.894-0.317,1.565-0.947,2.013
				c-0.634,0.45-1.521,0.672-2.666,0.672c-0.615,0-1.207-0.069-1.771-0.211c-0.566-0.142-1.093-0.323-1.581-0.545
				c-0.49-0.225-0.927-0.479-1.312-0.759c-0.383-0.283-0.695-0.563-0.935-0.847l-0.972,1.889c0.902,0.813,1.906,1.431,3.014,1.853
				c1.106,0.421,2.277,0.632,3.511,0.632c0.826,0,1.596-0.095,2.304-0.283c0.707-0.192,1.32-0.49,1.838-0.897
				c0.521-0.406,0.932-0.919,1.234-1.539c0.3-0.621,0.449-1.352,0.449-2.197c0-0.796-0.124-1.468-0.371-2.013
				C493.55,598.351,493.188,597.89,492.712,597.508z M513.067,603.246l-2.235-5.168l2.372-6.036h-1.694l-1.805,4.696l-1.785-4.696
				h-1.692l2.348,6.036l-2.189,5.168l-4.654-11.276h-1.963l5.689,13.684h1.581l2.688-6.257l2.688,6.257h1.556l5.717-13.684h-1.99
				L513.067,603.246z M526.232,605.653h1.805V591.97h-1.805V605.653z M536.032,605.653h1.806v-5.984h6.097v-1.663h-6.097v-4.274
				h7.227v-1.762h-9.032V605.653z M550.777,591.97v1.762h4.695v11.922h1.805v-11.922h4.674v-1.762H550.777z"/>
		</g>
	</g>
</g>
</svg>
